<svg width="10" height="9" viewBox="0 0 10 9" fill="none" xmlns="http://www.w3.org/2000/svg">
<path d="M9.32248 8.44018L6.90208 6.01979C7.48372 5.32152 7.77376 4.4259 7.71187 3.51924C7.64998 2.61257 7.24093 1.76467 6.56981 1.15192C5.89868 0.539168 5.01716 0.208746 4.10862 0.22939C3.20008 0.250033 2.33447 0.620153 1.69187 1.26275C1.04927 1.90536 0.679149 2.77096 0.658505 3.6795C0.637861 4.58804 0.968283 5.46957 1.58103 6.14069C2.19378 6.81182 3.04169 7.22087 3.94835 7.28276C4.85502 7.34465 5.75064 7.05461 6.4489 6.47297L8.8693 8.89336L9.32248 8.44018ZM1.31005 3.76541C1.31005 3.19491 1.47922 2.63723 1.79617 2.16288C2.11312 1.68853 2.56361 1.31882 3.09068 1.1005C3.61775 0.882182 4.19772 0.825059 4.75726 0.936357C5.31679 1.04766 5.83075 1.32238 6.23416 1.72578C6.63756 2.12918 6.91228 2.64314 7.02358 3.20268C7.13487 3.76221 7.07775 4.34218 6.85943 4.86925C6.64111 5.39632 6.2714 5.84681 5.79705 6.16376C5.3227 6.48071 4.76502 6.64988 4.19452 6.64988C3.42977 6.64904 2.69659 6.34486 2.15583 5.8041C1.61507 5.26334 1.3109 4.53016 1.31005 3.76541Z" fill="#8692A6"/>
</svg>
