<svg width="9" height="9" viewBox="0 0 9 9" fill="none" xmlns="http://www.w3.org/2000/svg">
<path d="M2.95866 8.18832H1.24934C0.779281 8.18832 0.394684 7.80372 0.394684 7.33366V1.35104C0.394684 0.88098 0.779281 0.496384 1.24934 0.496384H2.95866C3.42872 0.496384 3.81332 0.88098 3.81332 1.35104V7.33366C3.81332 7.80372 3.42872 8.18832 2.95866 8.18832ZM5.52264 8.18832H7.23196C7.70202 8.18832 8.08662 7.80372 8.08662 7.33366V5.19701C8.08662 4.72695 7.70202 4.34235 7.23196 4.34235H5.52264C5.05258 4.34235 4.66798 4.72695 4.66798 5.19701V7.33366C4.66798 7.80372 5.05258 8.18832 5.52264 8.18832ZM8.08662 2.63303V1.35104C8.08662 0.88098 7.70202 0.496384 7.23196 0.496384H5.52264C5.05258 0.496384 4.66798 0.88098 4.66798 1.35104V2.63303C4.66798 3.10309 5.05258 3.48769 5.52264 3.48769H7.23196C7.70202 3.48769 8.08662 3.10309 8.08662 2.63303Z" fill="current"/>
</svg>
