<svg width="10" height="10" viewBox="0 0 10 10" fill="none" xmlns="http://www.w3.org/2000/svg">
<path d="M5.0269 9.20232C4.7435 9.20121 4.47202 9.11095 4.27112 8.95103C4.07022 8.79111 3.95604 8.57438 3.95323 8.34766H6.08989C6.09101 8.46192 6.06378 8.57521 6.00976 8.68098C5.94068 8.80779 5.83491 8.91964 5.70118 9.00731C5.56744 9.09499 5.40956 9.15597 5.24057 9.18523H5.21546C5.1534 9.19557 5.09028 9.20129 5.0269 9.20232ZM9.3002 7.92033H0.753601V7.06568L1.82193 6.63835V4.28803C1.79378 3.68512 1.96398 3.08686 2.31549 2.55307C2.48847 2.30833 2.72436 2.09571 3.00758 1.92924C3.2908 1.76276 3.61493 1.64623 3.95858 1.58731V0.655731H6.09523V1.58731C7.47283 1.84969 8.23188 2.80862 8.23188 4.28803V6.63835L9.3002 7.06568V7.92033Z" fill="#696F79"/>
</svg>
