<svg width="10" height="9" viewBox="0 0 10 9" fill="none" xmlns="http://www.w3.org/2000/svg">
<path d="M5.06108 0.0675201C2.70478 0.0675201 0.787781 1.98452 0.787781 4.34082V6.11124C0.787781 6.54883 1.1711 6.90479 1.64244 6.90479H2.06977C2.1831 6.90479 2.2918 6.85977 2.37194 6.77963C2.45208 6.69949 2.4971 6.5908 2.4971 6.47746V4.27971C2.4971 4.16637 2.45208 4.05768 2.37194 3.97754C2.2918 3.8974 2.1831 3.85238 2.06977 3.85238H1.68175C1.91935 2.19861 3.34236 0.922179 5.06108 0.922179C6.7798 0.922179 8.2028 2.19861 8.4404 3.85238H8.05238C7.93905 3.85238 7.83036 3.8974 7.75022 3.97754C7.67008 4.05768 7.62505 4.16637 7.62505 4.27971V6.90479C7.62505 7.37614 7.24174 7.75945 6.7704 7.75945H5.91574V7.33212H4.20642V8.61411H6.7704C7.71308 8.61411 8.47971 7.84748 8.47971 6.90479C8.95106 6.90479 9.33437 6.54883 9.33437 6.11124V4.34082C9.33437 1.98452 7.41737 0.0675201 5.06108 0.0675201Z" fill="#696F79"/>
</svg>
